<svg width="18" height="18" viewBox="0 0 18 18" fill="none" xmlns="http://www.w3.org/2000/svg">
<mask id="path-1-inside-1_755_22124" fill="white">
<path fill-rule="evenodd" clip-rule="evenodd" d="M3.15 1.5C2.65294 1.5 2.25 1.90294 2.25 2.4V3.6C2.25 4.04256 2.56943 4.41051 2.99031 4.48588C2.53298 4.94208 2.25 5.57299 2.25 6.27V13.98C2.25 15.3718 3.37824 16.5 4.77 16.5H12.48C13.8718 16.5 15 15.3718 15 13.98V6.27C15 5.57299 14.717 4.94208 14.2597 4.48588C14.6806 4.41051 15 4.04256 15 3.6V2.4C15 1.90294 14.5971 1.5 14.1 1.5H3.15Z"/>
</mask>
<path d="M2.99031 4.48588L3.8731 5.37085C4.20288 5.04188 4.32239 4.55683 4.18318 4.11231C4.04398 3.66779 3.66915 3.33755 3.21064 3.25545L2.99031 4.48588ZM14.2597 4.48588L14.0394 3.25545C13.5809 3.33755 13.206 3.66779 13.0668 4.11231C12.9276 4.55683 13.0471 5.04188 13.3769 5.37085L14.2597 4.48588ZM3.5 2.4C3.5 2.5933 3.3433 2.75 3.15 2.75V0.25C1.96259 0.25 1 1.21259 1 2.4H3.5ZM3.5 3.6V2.4H1V3.6H3.5ZM3.21064 3.25545C3.37513 3.2849 3.5 3.42658 3.5 3.6H1C1 4.65854 1.76372 5.53612 2.76998 5.7163L3.21064 3.25545ZM3.5 6.27C3.5 5.9184 3.64123 5.60214 3.8731 5.37085L2.10752 3.6009C1.42472 4.28202 1 5.22759 1 6.27H3.5ZM3.5 13.98V6.27H1V13.98H3.5ZM4.77 15.25C4.0686 15.25 3.5 14.6814 3.5 13.98H1C1 16.0621 2.68789 17.75 4.77 17.75V15.25ZM12.48 15.25H4.77V17.75H12.48V15.25ZM13.75 13.98C13.75 14.6814 13.1814 15.25 12.48 15.25V17.75C14.5621 17.75 16.25 16.0621 16.25 13.98H13.75ZM13.75 6.27V13.98H16.25V6.27H13.75ZM13.3769 5.37085C13.6088 5.60215 13.75 5.9184 13.75 6.27H16.25C16.25 5.22759 15.8253 4.28201 15.1425 3.6009L13.3769 5.37085ZM13.75 3.6C13.75 3.42658 13.8749 3.2849 14.0394 3.25545L14.48 5.71631C15.4863 5.53612 16.25 4.65854 16.25 3.6H13.75ZM13.75 2.4V3.6H16.25V2.4H13.75ZM14.1 2.75C13.9067 2.75 13.75 2.5933 13.75 2.4H16.25C16.25 1.21259 15.2874 0.25 14.1 0.25V2.75ZM3.15 2.75H14.1V0.25H3.15V2.75Z" fill="white" mask="url(#path-1-inside-1_755_22124)"/>
<rect x="4.5" y="9.75" width="8.25" height="4.5" rx="0.75" fill="white"/>
</svg>
