<svg width="25" height="24" viewBox="0 0 25 24" fill="none" xmlns="http://www.w3.org/2000/svg">
<path d="M3.13281 9.02097H2.28281V10.721H3.13281V9.02097ZM21.2498 10.721H22.0998V9.02097H21.2498V10.721ZM3.13281 10.721H21.2498V9.02097H3.13281V10.721Z" fill="black"/>
<path d="M18.7097 8.81815L19.1331 9.55523L17.6589 10.4019L17.2356 9.66481L18.7097 8.81815ZM14.477 4.86181L14.0537 4.12473L15.5279 3.27806L15.9512 4.01514L14.477 4.86181ZM17.2356 9.66481L14.477 4.86181L15.9512 4.01514L18.7097 8.81815L17.2356 9.66481Z" fill="black"/>
<path d="M5.75588 8.82722L5.34153 9.56938L6.82586 10.3981L7.24021 9.65592L5.75588 8.82722ZM9.92178 4.85283L10.3361 4.11066L8.8518 3.28196L8.43745 4.02412L9.92178 4.85283ZM7.24021 9.65592L9.92178 4.85283L8.43745 4.02412L5.75588 8.82722L7.24021 9.65592Z" fill="black"/>
<path d="M4.91708 10.0763C4.87616 9.60864 4.46388 9.26271 3.99622 9.30363C3.52857 9.34455 3.18263 9.75683 3.22355 10.2245L4.91708 10.0763ZM4.94493 20.146L4.09816 20.2201C4.13658 20.6591 4.5042 20.996 4.94493 20.996V20.146ZM19.4385 20.146V20.996C19.8793 20.996 20.2469 20.6591 20.2853 20.2201L19.4385 20.146ZM21.1599 10.2245C21.2008 9.75683 20.8549 9.34455 20.3872 9.30363C19.9196 9.26271 19.5073 9.60864 19.4664 10.0763L21.1599 10.2245ZM3.22355 10.2245L4.09816 20.2201L5.79169 20.0719L4.91708 10.0763L3.22355 10.2245ZM4.94493 20.996H19.4385V19.296H4.94493V20.996ZM20.2853 20.2201L21.1599 10.2245L19.4664 10.0763L18.5918 20.0719L20.2853 20.2201Z" fill="black"/>
<path d="M9.13045 13.7002V12.7631H7.25627V13.7002H9.13045ZM7.25627 16.1002V17.0373H9.13045V16.1002H7.25627ZM7.25627 13.7002V16.1002H9.13045V13.7002H7.25627Z" fill="black"/>
<path d="M13.1285 13.7002V12.7631H11.2543V13.7002H13.1285ZM11.2543 16.1002V17.0373H13.1285V16.1002H11.2543ZM11.2543 13.7002V16.1002H13.1285V13.7002H11.2543Z" fill="black"/>
<path d="M17.1265 13.7002V12.7631H15.2524V13.7002H17.1265ZM15.2524 16.1002V17.0373H17.1265V16.1002H15.2524ZM15.2524 13.7002V16.1002H17.1265V13.7002H15.2524Z" fill="black"/>
</svg>
