<svg width="24" height="24" viewBox="0 0 24 24" fill="none" xmlns="http://www.w3.org/2000/svg">
<mask id="path-1-inside-1_846_15526" fill="white">
<path fill-rule="evenodd" clip-rule="evenodd" d="M4.2 2C3.53726 2 3 2.53726 3 3.2V4.8C3 5.39008 3.42591 5.88068 3.98708 5.98117C3.3773 6.58944 3 7.43066 3 8.36V18.64C3 20.4957 4.50432 22 6.36 22H16.64C18.4957 22 20 20.4957 20 18.64V8.36C20 7.43066 19.6227 6.58944 19.0129 5.98117C19.5741 5.88068 20 5.39008 20 4.8V3.2C20 2.53726 19.4627 2 18.8 2H4.2Z"/>
</mask>
<path d="M3.98708 5.98117L5.16413 7.16113C5.60384 6.72251 5.76319 6.07578 5.57758 5.48308C5.39197 4.89039 4.8922 4.45007 4.28085 4.3406L3.98708 5.98117ZM19.0129 5.98117L18.7192 4.3406C18.1078 4.45007 17.608 4.89039 17.4224 5.48308C17.2368 6.07578 17.3962 6.72251 17.8359 7.16113L19.0129 5.98117ZM4.66667 3.2C4.66667 3.45773 4.45773 3.66667 4.2 3.66667V0.333334C2.61678 0.333334 1.33333 1.61678 1.33333 3.2H4.66667ZM4.66667 4.8V3.2H1.33333V4.8H4.66667ZM4.28085 4.3406C4.50018 4.37987 4.66667 4.56877 4.66667 4.8H1.33333C1.33333 6.21138 2.35163 7.38149 3.69331 7.62174L4.28085 4.3406ZM4.66667 8.36C4.66667 7.89119 4.85498 7.46952 5.16413 7.16113L2.81002 4.8012C1.89962 5.70936 1.33333 6.97012 1.33333 8.36H4.66667ZM4.66667 18.64V8.36H1.33333V18.64H4.66667ZM6.36 20.3333C5.4248 20.3333 4.66667 19.5752 4.66667 18.64H1.33333C1.33333 21.4162 3.58385 23.6667 6.36 23.6667V20.3333ZM16.64 20.3333H6.36V23.6667H16.64V20.3333ZM18.3333 18.64C18.3333 19.5752 17.5752 20.3333 16.64 20.3333V23.6667C19.4162 23.6667 21.6667 21.4162 21.6667 18.64H18.3333ZM18.3333 8.36V18.64H21.6667V8.36H18.3333ZM17.8359 7.16113C18.145 7.46953 18.3333 7.8912 18.3333 8.36H21.6667C21.6667 6.97012 21.1004 5.70935 20.19 4.8012L17.8359 7.16113ZM18.3333 4.8C18.3333 4.56878 18.4998 4.37987 18.7192 4.3406L19.3067 7.62174C20.6484 7.3815 21.6667 6.21138 21.6667 4.8H18.3333ZM18.3333 3.2V4.8H21.6667V3.2H18.3333ZM18.8 3.66667C18.5423 3.66667 18.3333 3.45773 18.3333 3.2H21.6667C21.6667 1.61678 20.3832 0.333334 18.8 0.333334V3.66667ZM4.2 3.66667H18.8V0.333334H4.2V3.66667Z" fill="black" mask="url(#path-1-inside-1_846_15526)"/>
<rect x="6" y="13" width="11" height="6" rx="1" fill="black"/>
</svg>
