<svg xmlns="http://www.w3.org/2000/svg" width="78" height="29" viewBox="0 0 78 29">
  <defs>
    <style>
      .cls-1 {
        fill-rule: evenodd;
      }
    </style>
  </defs>
  <path id="indasol" class="cls-1" d="M9.589,8.771H6.684V20.857H9.589V8.771Zm12.119,0H18.8v7.52l-4.275-7.52H11.614V20.857h2.914v-7.52l4.283,7.52h2.9V8.771Zm5.819,12.086a5.6,5.6,0,0,0,2.843-.751,5.127,5.127,0,0,0,1.976-2.059,6.225,6.225,0,0,0,.7-2.976V14.515a6.192,6.192,0,0,0-.726-2.967,5.107,5.107,0,0,0-2-2.05,5.728,5.728,0,0,0-2.88-.726H23.551V20.857h3.976Zm-0.083-9.836a2.306,2.306,0,0,1,1.959.888,4.338,4.338,0,0,1,.672,2.64v0.523a4.373,4.373,0,0,1-.672,2.652,2.267,2.267,0,0,1-1.926.892H26.465v-7.6h0.979Zm14.493,9.836h3.129L40.6,8.771H37.862L33.429,20.857h3.113l0.7-2.258h3.993Zm-2.706-8.7,1.3,4.192h-2.6Zm12.53,6.363a1.875,1.875,0,0,1-1.141.311,2.374,2.374,0,0,1-1.631-.461,1.853,1.853,0,0,1-.5-1.432H45.565a3.762,3.762,0,0,0,.6,2.113A4.01,4.01,0,0,0,47.959,20.5a6.5,6.5,0,0,0,2.66.527,5.317,5.317,0,0,0,3.279-.9,2.951,2.951,0,0,0,1.2-2.49,3.46,3.46,0,0,0-1.959-3.113,10.746,10.746,0,0,0-2.059-.867,6.276,6.276,0,0,1-1.751-.78,1.014,1.014,0,0,1-.046-1.718,1.989,1.989,0,0,1,1.233-.344,1.764,1.764,0,0,1,1.224.407,1.461,1.461,0,0,1,.452,1.146h2.905a3.457,3.457,0,0,0-.573-1.963A3.7,3.7,0,0,0,52.915,9.07a5.638,5.638,0,0,0-2.337-.465,6.445,6.445,0,0,0-2.407.427,3.787,3.787,0,0,0-1.656,1.2A2.844,2.844,0,0,0,45.93,12q0,2.017,2.349,3.171a15.233,15.233,0,0,0,1.859.739,5.631,5.631,0,0,1,1.59.739,1.2,1.2,0,0,1,.452,1A1.028,1.028,0,0,1,51.761,18.521Zm15.062-4.013a6.955,6.955,0,0,0-.677-3.092,4.923,4.923,0,0,0-1.872-2.079,5.529,5.529,0,0,0-5.508.008,4.834,4.834,0,0,0-1.868,2.1,7.158,7.158,0,0,0-.652,3.134v0.681a6.919,6.919,0,0,0,.7,3.03,4.838,4.838,0,0,0,1.864,2.03,5.262,5.262,0,0,0,2.739.71,5.189,5.189,0,0,0,2.752-.735,4.846,4.846,0,0,0,1.864-2.1,7.128,7.128,0,0,0,.656-3.129V14.507Zm-2.963.606a5.085,5.085,0,0,1-.606,2.7,1.9,1.9,0,0,1-1.7.938,1.927,1.927,0,0,1-1.751-.954,5.226,5.226,0,0,1-.589-2.731l0.008-.888q0.124-3.287,2.316-3.287a1.93,1.93,0,0,1,1.722.934,5.083,5.083,0,0,1,.6,2.735v0.556Zm7.288-7.006H68.342v12.75h2.806V8.107Z"/>
</svg>
